<?xml version="1.0" encoding="UTF-8" standalone="no"?>
<!-- Generated by Graphviz version 2.20.2 (Tue Mar &#160;2 21:46:26 UTC 2010)
     For user: (elink) Eric Link,,, -->

<!-- Title: FSM Pages: 1 -->

<svg
   xmlns:dc="http://purl.org/dc/elements/1.1/"
   xmlns:cc="http://creativecommons.org/ns#"
   xmlns:rdf="http://www.w3.org/1999/02/22-rdf-syntax-ns#"
   xmlns:svg="http://www.w3.org/2000/svg"
   xmlns="http://www.w3.org/2000/svg"
   xmlns:sodipodi="http://sodipodi.sourceforge.net/DTD/sodipodi-0.dtd"
   xmlns:inkscape="http://www.inkscape.org/namespaces/inkscape"
   width="1764pt"
   height="748pt"
   viewBox="0.00 0.00 1764.00 748.00"
   id="svg2"
   version="1.1"
   inkscape:version="0.47 r22583"
   sodipodi:docname="asthma_process.svg"
   inkscape:export-filename="/home/elink/Sandlion/Clients/Driscoll Childrens Health Plan/OAT Wrap Up/OAT Diagrams/asthma_process.png"
   inkscape:export-xdpi="300"
   inkscape:export-ydpi="300">
  <metadata
     id="metadata333">
    <rdf:RDF>
      <cc:Work
         rdf:about="">
        <dc:format>image/svg+xml</dc:format>
        <dc:type
           rdf:resource="http://purl.org/dc/dcmitype/StillImage" />
        <dc:title></dc:title>
      </cc:Work>
    </rdf:RDF>
  </metadata>
  <defs
     id="defs331">
    <inkscape:perspective
       sodipodi:type="inkscape:persp3d"
       inkscape:vp_x="0 : 467.5 : 1"
       inkscape:vp_y="0 : 1000 : 0"
       inkscape:vp_z="2205 : 467.5 : 1"
       inkscape:persp3d-origin="1102.5 : 311.66667 : 1"
       id="perspective335" />
  </defs>
  <sodipodi:namedview
     pagecolor="#ffffff"
     bordercolor="#666666"
     borderopacity="1"
     objecttolerance="10"
     gridtolerance="10"
     guidetolerance="10"
     inkscape:pageopacity="0"
     inkscape:pageshadow="2"
     inkscape:window-width="1440"
     inkscape:window-height="875"
     id="namedview329"
     showgrid="false"
     inkscape:zoom="0.34697938"
     inkscape:cx="1267.4732"
     inkscape:cy="485.1888"
     inkscape:window-x="0"
     inkscape:window-y="24"
     inkscape:window-maximized="1"
     inkscape:current-layer="svg2" />
  <g
     id="graph0"
     class="graph"
     transform="scale(1 1) rotate(0) translate(4 744)">
    <title
       id="title5">FSM</title>
    <polygon
       style="fill:white;stroke:white;"
       points="-4,4 -4,-744 1760,-744 1760,4 -4,4"
       id="polygon7" />
    <!-- Start -->
    <g
       id="node1"
       class="node">
      <title
         id="title10">Start</title>
      <polygon
         style="fill:none;stroke:black;"
         points="480.06,-716.438 515,-704 549.94,-716.438 549.907,-736.562 480.093,-736.562 480.06,-716.438"
         id="polygon12" />
      <text
         text-anchor="middle"
         x="515"
         y="-717.9"
         style="font-family:Times New Roman;font-size:14.00;"
         id="text14">Start</text>
    </g>
    <!-- Request Controller Status -->
    <g
       id="node2"
       class="node">
      <title
         id="title17">Request Controller Status</title>
      <ellipse
         style="fill:none;stroke:black;"
         cx="515"
         cy="-632"
         rx="135.002"
         ry="18"
         id="ellipse19"
         d="m 650.002,-632 c 0,9.94113 -60.44245,18 -135.002,18 -74.55955,0 -135.002,-8.05887 -135.002,-18 0,-9.94113 60.44245,-18 135.002,-18 74.55955,0 135.002,8.05887 135.002,18 z" />
      <text
         text-anchor="middle"
         x="515"
         y="-627.9"
         style="font-family:Times New Roman;font-size:14.00;"
         id="text21">Request Controller Status</text>
    </g>
    <!-- Start&#45;&gt;Request Controller Status -->
    <g
       id="edge2"
       class="edge">
      <title
         id="title24">Start-&gt;Request Controller Status</title>
      <path
         style="fill:none;stroke:black;"
         d="M515,-704C515,-691 515,-675 515,-660"
         id="path26" />
      <polygon
         style="fill:black;stroke:black;"
         points="518.5,-660 515,-650 511.5,-660 518.5,-660"
         id="polygon28" />
      <text
         text-anchor="middle"
         x="569"
         y="-672.9"
         style="font-family:Times New Roman;font-size:14.00;"
         id="text30">healthy asthma</text>
    </g>
    <!-- Request Controller Status&#45;&gt;Request Controller Status -->
    <g
       id="edge10"
       class="edge">
      <title
         id="title33">Request Controller Status-&gt;Request Controller Status</title>
      <path
         style="fill:none;stroke:black;"
         d="M638,-639C656,-638 668,-636 668,-632 668,-629 660,-627 648,-626"
         id="path35" />
      <polygon
         style="fill:black;stroke:black;"
         points="648.299,-622.512 638,-625 647.602,-629.478 648.299,-622.512"
         id="polygon37" />
      <text
         text-anchor="middle"
         x="753"
         y="-627.9"
         style="font-family:Times New Roman;font-size:14.00;"
         id="text39">Input (General Message)</text>
    </g>
    <!-- healthimo_asthma_process_get_controller_status() -->
    <g
       id="node3"
       class="node">
      <title
         id="title42">healthimo_asthma_process_get_controller_status()</title>
      <polygon
         style="fill:none;stroke:black;"
         points="366,-560 8.52651e-14,-560 2.84217e-14,-524 366,-524 366,-560"
         id="polygon44" />
      <text
         text-anchor="middle"
         x="183"
         y="-537.9"
         style="font-family:Times New Roman;font-size:14.00;"
         id="text46">healthimo_asthma_process_get_controller_status()</text>
    </g>
    <!-- Request Controller Status&#45;&gt;healthimo_asthma_process_get_controller_status() -->
    <g
       id="edge4"
       class="edge">
      <title
         id="title49">Request Controller Status-&gt;healthimo_asthma_process_get_controller_status()</title>
      <path
         style="fill:none;stroke:black;"
         d="M455,-616C400,-601 319,-579 259,-563"
         id="path51" />
      <polygon
         style="fill:black;stroke:black;"
         points="259.584,-559.521 249,-560 257.573,-566.226 259.584,-559.521"
         id="polygon53" />
    </g>
    <!-- Request Controller Times -->
    <g
       id="node4"
       class="node">
      <title
         id="title56">Request Controller Times</title>
      <ellipse
         style="fill:none;stroke:black;"
         cx="515"
         cy="-542"
         rx="130.833"
         ry="18"
         id="ellipse58"
         d="m 645.83299,-542 c 0,9.94113 -58.57592,18 -130.83299,18 -72.25707,0 -130.83299,-8.05887 -130.83299,-18 0,-9.94113 58.57592,-18 130.83299,-18 72.25707,0 130.83299,8.05887 130.83299,18 z" />
      <text
         text-anchor="middle"
         x="515"
         y="-537.9"
         style="font-family:Times New Roman;font-size:14.00;"
         id="text60">Request Controller Times</text>
    </g>
    <!-- Request Controller Status&#45;&gt;Request Controller Times -->
    <g
       id="edge6"
       class="edge">
      <title
         id="title63">Request Controller Status-&gt;Request Controller Times</title>
      <path
         style="fill:none;stroke:black;"
         d="M515,-614C515,-601 515,-585 515,-570"
         id="path65" />
      <polygon
         style="fill:black;stroke:black;"
         points="518.5,-570 515,-560 511.5,-570 518.5,-570"
         id="polygon67" />
      <text
         text-anchor="middle"
         x="547"
         y="-582.9"
         style="font-family:Times New Roman;font-size:14.00;"
         id="text69">Input Yes</text>
    </g>
    <!-- Request Education Time -->
    <g
       id="node6"
       class="node">
      <title
         id="title72">Request Education Time</title>
      <ellipse
         style="fill:none;stroke:black;"
         cx="978"
         cy="-542"
         rx="125.969"
         ry="18"
         id="ellipse74"
         d="m 1103.969,-542 c 0,9.94113 -56.3982,18 -125.969,18 -69.57076,0 -125.969,-8.05887 -125.969,-18 0,-9.94113 56.39824,-18 125.969,-18 69.5708,0 125.969,8.05887 125.969,18 z" />
      <text
         text-anchor="middle"
         x="978"
         y="-537.9"
         style="font-family:Times New Roman;font-size:14.00;"
         id="text76">Request Education Time</text>
    </g>
    <!-- Request Controller Status&#45;&gt;Request Education Time -->
    <g
       id="edge8"
       class="edge">
      <title
         id="title79">Request Controller Status-&gt;Request Education Time</title>
      <path
         style="fill:none;stroke:black;"
         d="M591,-617C675,-602 807,-575 893,-559"
         id="path81" />
      <polygon
         style="fill:black;stroke:black;"
         points="893.881,-562.393 903,-557 892.508,-555.529 893.881,-562.393"
         id="polygon83" />
      <text
         text-anchor="middle"
         x="819"
         y="-582.9"
         style="font-family:Times New Roman;font-size:14.00;"
         id="text85">Input No</text>
    </g>
    <!-- Request Controller Times&#45;&gt;Request Controller Times -->
    <g
       id="edge16"
       class="edge">
      <title
         id="title88">Request Controller Times-&gt;Request Controller Times</title>
      <path
         style="fill:none;stroke:black;"
         d="M634,-549C652,-548 664,-546 664,-542 664,-539 656,-537 644,-536"
         id="path90" />
      <polygon
         style="fill:black;stroke:black;"
         points="644.299,-532.512 634,-535 643.602,-539.478 644.299,-532.512"
         id="polygon92" />
      <text
         text-anchor="middle"
         x="749"
         y="-537.9"
         style="font-family:Times New Roman;font-size:14.00;"
         id="text94">Input (General Message)</text>
    </g>
    <!-- healthimo_asthma_process_request_controller_times() -->
    <g
       id="node5"
       class="node">
      <title
         id="title97">healthimo_asthma_process_request_controller_times()</title>
      <polygon
         style="fill:none;stroke:black;"
         points="648,-470 258,-470 258,-434 648,-434 648,-470"
         id="polygon99" />
      <text
         text-anchor="middle"
         x="453"
         y="-447.9"
         style="font-family:Times New Roman;font-size:14.00;"
         id="text101">healthimo_asthma_process_request_controller_times()</text>
    </g>
    <!-- Request Controller Times&#45;&gt;healthimo_asthma_process_request_controller_times() -->
    <g
       id="edge12"
       class="edge">
      <title
         id="title104">Request Controller Times-&gt;healthimo_asthma_process_request_controller_times()</title>
      <path
         style="fill:none;stroke:black;"
         d="M502,-524C493,-511 481,-493 471,-478"
         id="path106" />
      <polygon
         style="fill:black;stroke:black;"
         points="473.8,-475.9 465,-470 468.2,-480.1 473.8,-475.9"
         id="polygon108" />
    </g>
    <!-- Profile Complete -->
    <g
       id="node8"
       class="node">
      <title
         id="title111">Profile Complete</title>
      <ellipse
         style="fill:none;stroke:black;"
         cx="755"
         cy="-452"
         rx="89.139"
         ry="18"
         id="ellipse113"
         d="m 844.139,-452 c 0,9.94113 -39.90889,18 -89.139,18 -49.23011,0 -89.139,-8.05887 -89.139,-18 0,-9.94113 39.90889,-18 89.139,-18 49.23011,0 89.139,8.05887 89.139,18 z" />
      <text
         text-anchor="middle"
         x="755"
         y="-447.9"
         style="font-family:Times New Roman;font-size:14.00;"
         id="text115">Profile Complete</text>
    </g>
    <!-- Request Controller Times&#45;&gt;Profile Complete -->
    <g
       id="edge14"
       class="edge">
      <title
         id="title118">Request Controller Times-&gt;Profile Complete</title>
      <path
         style="fill:none;stroke:black;"
         d="M534,-524C548,-512 567,-497 587,-488 596,-484 640,-475 680,-467"
         id="path120" />
      <polygon
         style="fill:black;stroke:black;"
         points="680.881,-470.393 690,-465 679.508,-463.529 680.881,-470.393"
         id="polygon122" />
      <text
         text-anchor="middle"
         x="687"
         y="-492.9"
         style="font-family:Times New Roman;font-size:14.00;"
         id="text124">Input Two Valid Times of Day</text>
    </g>
    <!-- Request Education Time&#45;&gt;Request Education Time -->
    <g
       id="edge22"
       class="edge">
      <title
         id="title127">Request Education Time-&gt;Request Education Time</title>
      <path
         style="fill:none;stroke:black;"
         d="M1093,-550C1110,-548 1122,-546 1122,-542 1122,-539 1115,-537 1103,-535"
         id="path129" />
      <polygon
         style="fill:black;stroke:black;"
         points="1103.3,-531.512 1093,-534 1102.6,-538.478 1103.3,-531.512"
         id="polygon131" />
      <text
         text-anchor="middle"
         x="1207"
         y="-537.9"
         style="font-family:Times New Roman;font-size:14.00;"
         id="text133">Input (General Message)</text>
    </g>
    <!-- healthimo_asthma_process_request_education_time() -->
    <g
       id="node7"
       class="node">
      <title
         id="title136">healthimo_asthma_process_request_education_time()</title>
      <polygon
         style="fill:none;stroke:black;"
         points="1248,-470 862,-470 862,-434 1248,-434 1248,-470"
         id="polygon138" />
      <text
         text-anchor="middle"
         x="1055"
         y="-447.9"
         style="font-family:Times New Roman;font-size:14.00;"
         id="text140">healthimo_asthma_process_request_education_time()</text>
    </g>
    <!-- Request Education Time&#45;&gt;healthimo_asthma_process_request_education_time() -->
    <g
       id="edge18"
       class="edge">
      <title
         id="title143">Request Education Time-&gt;healthimo_asthma_process_request_education_time()</title>
      <path
         style="fill:none;stroke:black;"
         d="M994,-524C1005,-511 1020,-493 1033,-478"
         id="path145" />
      <polygon
         style="fill:black;stroke:black;"
         points="1035.8,-480.1 1039,-470 1030.2,-475.9 1035.8,-480.1"
         id="polygon147" />
    </g>
    <!-- Request Education Time&#45;&gt;Profile Complete -->
    <g
       id="edge20"
       class="edge">
      <title
         id="title150">Request Education Time-&gt;Profile Complete</title>
      <path
         style="fill:none;stroke:black;"
         d="M882,-530C858,-525 833,-517 812,-506 799,-499 787,-488 777,-477"
         id="path152" />
      <polygon
         style="fill:black;stroke:black;"
         points="779.546,-474.596 770,-470 774.596,-479.546 779.546,-474.596"
         id="polygon154" />
      <text
         text-anchor="middle"
         x="915"
         y="-492.9"
         style="font-family:Times New Roman;font-size:14.00;"
         id="text156">Input One Valid Time of Day</text>
    </g>
    <!-- healthimo_asthma_process_receive_controller_times() -->
    <g
       id="node9"
       class="node">
      <title
         id="title159">healthimo_asthma_process_receive_controller_times()</title>
      <polygon
         style="fill:none;stroke:black;"
         points="546,-380 158,-380 158,-344 546,-344 546,-380"
         id="polygon161" />
      <text
         text-anchor="middle"
         x="352"
         y="-357.9"
         style="font-family:Times New Roman;font-size:14.00;"
         id="text163">healthimo_asthma_process_receive_controller_times()</text>
    </g>
    <!-- Profile Complete&#45;&gt;healthimo_asthma_process_receive_controller_times() -->
    <g
       id="edge24"
       class="edge">
      <title
         id="title166">Profile Complete-&gt;healthimo_asthma_process_receive_controller_times()</title>
      <path
         style="fill:none;stroke:black;"
         d="M695,-439C628,-424 519,-399 442,-382"
         id="path168" />
      <polygon
         style="fill:black;stroke:black;"
         points="442.492,-378.529 432,-380 441.119,-385.393 442.492,-378.529"
         id="polygon170" />
    </g>
    <!-- healthimo_asthma_process_receive_education_time() -->
    <g
       id="node10"
       class="node">
      <title
         id="title173">healthimo_asthma_process_receive_education_time()</title>
      <polygon
         style="fill:none;stroke:black;"
         points="946,-380 564,-380 564,-344 946,-344 946,-380"
         id="polygon175" />
      <text
         text-anchor="middle"
         x="755"
         y="-357.9"
         style="font-family:Times New Roman;font-size:14.00;"
         id="text177">healthimo_asthma_process_receive_education_time()</text>
    </g>
    <!-- Profile Complete&#45;&gt;healthimo_asthma_process_receive_education_time() -->
    <g
       id="edge26"
       class="edge">
      <title
         id="title180">Profile Complete-&gt;healthimo_asthma_process_receive_education_time()</title>
      <path
         style="fill:none;stroke:black;"
         d="M755,-434C755,-421 755,-405 755,-390"
         id="path182" />
      <polygon
         style="fill:black;stroke:black;"
         points="758.5,-390 755,-380 751.5,-390 758.5,-390"
         id="polygon184" />
    </g>
    <!-- Active -->
    <g
       id="node11"
       class="node">
      <title
         id="title187">Active</title>
      <ellipse
         style="fill:none;stroke:black;"
         cx="1005"
         cy="-362"
         rx="40.9981"
         ry="18"
         id="ellipse189"
         d="m 1045.9981,-362 c 0,9.94113 -18.3555,18 -40.9981,18 -22.64263,0 -40.9981,-8.05887 -40.9981,-18 0,-9.94113 18.35547,-18 40.9981,-18 22.6426,0 40.9981,8.05887 40.9981,18 z" />
      <text
         text-anchor="middle"
         x="1005"
         y="-357.9"
         style="font-family:Times New Roman;font-size:14.00;"
         id="text191">Active</text>
    </g>
    <!-- Profile Complete&#45;&gt;Active -->
    <g
       id="edge28"
       class="edge">
      <title
         id="title194">Profile Complete-&gt;Active</title>
      <path
         style="fill:none;stroke:black;"
         d="M799,-436C846,-419 918,-393 963,-376"
         id="path196" />
      <polygon
         style="fill:black;stroke:black;"
         points="964.427,-379.226 973,-373 962.416,-372.521 964.427,-379.226"
         id="polygon198" />
      <text
         text-anchor="middle"
         x="961"
         y="-402.9"
         style="font-family:Times New Roman;font-size:14.00;"
         id="text200">Profile Complete</text>
    </g>
    <!-- Active&#45;&gt;Active -->
    <g
       id="edge32"
       class="edge">
      <title
         id="title203">Active-&gt;Active</title>
      <path
         style="fill:none;stroke:black;"
         d="M1042,-370C1054,-370 1064,-368 1064,-362 1064,-359 1059,-356 1052,-355"
         id="path205" />
      <polygon
         style="fill:black;stroke:black;"
         points="1052.3,-351.512 1042,-354 1051.6,-358.478 1052.3,-351.512"
         id="polygon207" />
      <text
         text-anchor="middle"
         x="1119"
         y="-357.9"
         style="font-family:Times New Roman;font-size:14.00;"
         id="text209">Message Trigger</text>
    </g>
    <!-- healthimo_asthma_process_active() -->
    <g
       id="node12"
       class="node">
      <title
         id="title212">healthimo_asthma_process_active()</title>
      <polygon
         style="fill:none;stroke:black;"
         points="617,-290 357,-290 357,-254 617,-254 617,-290"
         id="polygon214" />
      <text
         text-anchor="middle"
         x="487"
         y="-267.9"
         style="font-family:Times New Roman;font-size:14.00;"
         id="text216">healthimo_asthma_process_active()</text>
    </g>
    <!-- Active&#45;&gt;healthimo_asthma_process_active() -->
    <g
       id="edge30"
       class="edge">
      <title
         id="title219">Active-&gt;healthimo_asthma_process_active()</title>
      <path
         style="fill:none;stroke:black;"
         d="M975,-350C968,-348 962,-345 955,-344 895,-328 742,-306 627,-290"
         id="path221" />
      <polygon
         style="fill:black;stroke:black;"
         points="627.299,-286.512 617,-289 626.602,-293.478 627.299,-286.512"
         id="polygon223" />
    </g>
    <!-- healthimo_asthma_process_active_message_input() -->
    <g
       id="node13"
       class="node">
      <title
         id="title226">healthimo_asthma_process_active_message_input()</title>
      <polygon
         style="fill:none;stroke:black;"
         points="1007,-290 635,-290 635,-254 1007,-254 1007,-290"
         id="polygon228" />
      <text
         text-anchor="middle"
         x="821"
         y="-267.9"
         style="font-family:Times New Roman;font-size:14.00;"
         id="text230">healthimo_asthma_process_active_message_input()</text>
    </g>
    <!-- Active&#45;&gt;healthimo_asthma_process_active_message_input() -->
    <g
       id="edge34"
       class="edge">
      <title
         id="title233">Active-&gt;healthimo_asthma_process_active_message_input()</title>
      <path
         style="fill:none;stroke:black;"
         d="M977,-349C949,-334 902,-311 867,-295"
         id="path235" />
      <polygon
         style="fill:black;stroke:black;"
         points="868.441,-291.797 858,-290 865.042,-297.916 868.441,-291.797"
         id="polygon237" />
    </g>
    <!-- healthimo_asthma_process_active_message() -->
    <g
       id="node14"
       class="node">
      <title
         id="title240">healthimo_asthma_process_active_message()</title>
      <polygon
         style="fill:none;stroke:black;"
         points="1353,-290 1025,-290 1025,-254 1353,-254 1353,-290"
         id="polygon242" />
      <text
         text-anchor="middle"
         x="1189"
         y="-267.9"
         style="font-family:Times New Roman;font-size:14.00;"
         id="text244">healthimo_asthma_process_active_message()</text>
    </g>
    <!-- Active&#45;&gt;healthimo_asthma_process_active_message() -->
    <g
       id="edge36"
       class="edge">
      <title
         id="title247">Active-&gt;healthimo_asthma_process_active_message()</title>
      <path
         style="fill:none;stroke:black;"
         d="M1033,-349C1061,-334 1108,-311 1143,-295"
         id="path249" />
      <polygon
         style="fill:black;stroke:black;"
         points="1144.96,-297.916 1152,-290 1141.56,-291.797 1144.96,-297.916"
         id="polygon251" />
    </g>
    <!-- Protocol Complete -->
    <g
       id="node15"
       class="node">
      <title
         id="title254">Protocol Complete</title>
      <ellipse
         style="fill:none;stroke:black;"
         cx="1469"
         cy="-272"
         rx="98.1724"
         ry="18"
         id="ellipse256"
         d="m 1567.1724,-272 c 0,9.94113 -43.9533,18 -98.1724,18 -54.2191,0 -98.1724,-8.05887 -98.1724,-18 0,-9.94113 43.9533,-18 98.1724,-18 54.2191,0 98.1724,8.05887 98.1724,18 z" />
      <text
         text-anchor="middle"
         x="1469"
         y="-267.9"
         style="font-family:Times New Roman;font-size:14.00;"
         id="text258">Protocol Complete</text>
    </g>
    <!-- Active&#45;&gt;Protocol Complete -->
    <g
       id="edge38"
       class="edge">
      <title
         id="title261">Active-&gt;Protocol Complete</title>
      <path
         style="fill:none;stroke:black;"
         d="M1043,-355C1118,-340 1290,-306 1391,-287"
         id="path263" />
      <polygon
         style="fill:black;stroke:black;"
         points="1391.88,-290.393 1401,-285 1390.51,-283.529 1391.88,-290.393"
         id="polygon265" />
      <text
         text-anchor="middle"
         x="1343"
         y="-312.9"
         style="font-family:Times New Roman;font-size:14.00;"
         id="text267">Protocol Complete</text>
    </g>
    <!-- Survey -->
    <g
       id="node16"
       class="node">
      <title
         id="title270">Survey</title>
      <ellipse
         style="fill:none;stroke:black;"
         cx="1469"
         cy="-182"
         rx="45.1673"
         ry="18"
         id="ellipse272"
         d="m 1514.1673,-182 c 0,9.94113 -20.2221,18 -45.1673,18 -24.9452,0 -45.1673,-8.05887 -45.1673,-18 0,-9.94113 20.2221,-18 45.1673,-18 24.9452,0 45.1673,8.05887 45.1673,18 z" />
      <text
         text-anchor="middle"
         x="1469"
         y="-177.9"
         style="font-family:Times New Roman;font-size:14.00;"
         id="text274">Survey</text>
    </g>
    <!-- Protocol Complete&#45;&gt;Survey -->
    <g
       id="edge40"
       class="edge">
      <title
         id="title277">Protocol Complete-&gt;Survey</title>
      <path
         style="fill:none;stroke:black;"
         d="M1469,-254C1469,-241 1469,-225 1469,-210"
         id="path279" />
      <polygon
         style="fill:black;stroke:black;"
         points="1472.5,-210 1469,-200 1465.5,-210 1472.5,-210"
         id="polygon281" />
      <text
         text-anchor="middle"
         x="1524"
         y="-222.9"
         style="font-family:Times New Roman;font-size:14.00;"
         id="text283">Message Trigger</text>
    </g>
    <!-- healthimo_asthma_process_survey() -->
    <g
       id="node17"
       class="node">
      <title
         id="title286">healthimo_asthma_process_survey()</title>
      <polygon
         style="fill:none;stroke:black;"
         points="1586,-110 1320,-110 1320,-74 1586,-74 1586,-110"
         id="polygon288" />
      <text
         text-anchor="middle"
         x="1453"
         y="-87.9"
         style="font-family:Times New Roman;font-size:14.00;"
         id="text290">healthimo_asthma_process_survey()</text>
    </g>
    <!-- Survey&#45;&gt;healthimo_asthma_process_survey() -->
    <g
       id="edge42"
       class="edge">
      <title
         id="title293">Survey-&gt;healthimo_asthma_process_survey()</title>
      <path
         style="fill:none;stroke:black;"
         d="M1466,-164C1464,-151 1461,-134 1458,-120"
         id="path295" />
      <polygon
         style="fill:black;stroke:black;"
         points="1461.39,-119.119 1456,-110 1454.53,-120.492 1461.39,-119.119"
         id="polygon297" />
    </g>
    <!-- End -->
    <g
       id="node18"
       class="node">
      <title
         id="title300">End</title>
      <ellipse
         style="fill:none;stroke:black;"
         cx="1633"
         cy="-92"
         rx="29.1851"
         ry="18"
         id="ellipse302"
         d="m 1662.1851,-92 c 0,9.941125 -13.0666,18 -29.1851,18 -16.1185,0 -29.1851,-8.058875 -29.1851,-18 0,-9.94113 13.0666,-18 29.1851,-18 16.1185,0 29.1851,8.05887 29.1851,18 z" />
      <text
         text-anchor="middle"
         x="1633"
         y="-87.9"
         style="font-family:Times New Roman;font-size:14.00;"
         id="text304">End</text>
    </g>
    <!-- Survey&#45;&gt;End -->
    <g
       id="edge44"
       class="edge">
      <title
         id="title307">Survey-&gt;End</title>
      <path
         style="fill:none;stroke:black;"
         d="M1496,-167C1525,-152 1571,-126 1602,-109"
         id="path309" />
      <polygon
         style="fill:black;stroke:black;"
         points="1603.96,-111.916 1611,-104 1600.56,-105.797 1603.96,-111.916"
         id="polygon311" />
      <text
         text-anchor="middle"
         x="1652"
         y="-132.9"
         style="font-family:Times New Roman;font-size:14.00;"
         id="text313">Input (General Message)</text>
    </g>
    <!-- healthimo_asthma_process_end() -->
    <g
       id="node19"
       class="node">
      <title
         id="title316">healthimo_asthma_process_end()</title>
      <polygon
         style="fill:none;stroke:black;"
         points="1756,-36 1510,-36 1510,-1.06581e-14 1756,-0 1756,-36"
         id="polygon318" />
      <text
         text-anchor="middle"
         x="1633"
         y="-13.9"
         style="font-family:Times New Roman;font-size:14.00;"
         id="text320">healthimo_asthma_process_end()</text>
    </g>
    <!-- End&#45;&gt;healthimo_asthma_process_end() -->
    <g
       id="edge46"
       class="edge">
      <title
         id="title323">End-&gt;healthimo_asthma_process_end()</title>
      <path
         style="fill:none;stroke:black;"
         d="M1633,-74C1633,-65 1633,-56 1633,-46"
         id="path325" />
      <polygon
         style="fill:black;stroke:black;"
         points="1636.5,-46 1633,-36 1629.5,-46 1636.5,-46"
         id="polygon327" />
    </g>
  </g>
</svg>
